:SAMPLES-PER-SECOND 30
:FULLY-SPECIFIED
:DEGREES
598
root  -20.2824 35.2256 -6.33021 124.256 -85.4666 -133.69
RightUpLeg  -15.4292 -13.7505 -10.9983
RightLeg  50.0479 1.00402 0.913108
RightFoot  -18.1728 0.992241 18.5665
RightToes  -1.16417e-010 0 -3.6325e-017
Spine  22.5988 -4.96532 -7.10094
Spine1  -1.68904 -8.87074 18.0977
HEad  -11.6338 29.4249 -8.32867
LeftShoulder1  0.875309 -2.88158 -5.96021
LeftArm  16.317 27.1288 -48.8128
LeftForeArm  41.7854 -37.9014 -6.17403
LeftHand  1.11213 8.04171 45.0702
RightShoulder  0.258673 -2.06415 11.0184
RightArm  -23.554 -18.0773 56.1195
RightForeArm  -11.1057 51.7689 15.1701
RightHand  -1.88033 1.27566 -32.1636
LeftUpLeg  -10.2411 9.83408 33.8552
LeftLeg  43.9454 11.2659 11.7931
LeftFoot  6.18515 5.6541 -35.8005
LeftToes  6.91183e-011 3.39355e-011 2.1261e-011
599
root  -20.3265 35.0217 -5.67966 129.79 -89.5007 -140.93
RightUpLeg  -14.2713 -12.3031 -16.6877
RightLeg  51.7361 0.0679709 -0.288669
RightFoot  -18.386 1.03712 18.7356
RightToes  -1.16417e-010 0 -3.6325e-017
Spine  22.7762 -4.63092 -0.989585
Spine1  -0.341801 -6.64978 12.0259
HEad  -13.2364 23.2628 -13.6657
LeftShoulder1  1.05801 -2.93687 -8.98137
LeftArm  13.9023 26.8573 -52.2467
LeftForeArm  35.8265 -37.0524 -6.29171
LeftHand  0.96128 7.78438 43.3031
RightShoulder  0.386013 -1.46235 11.9674
RightArm  -29.6459 -14.2234 52.8392
RightForeArm  -8.02532 57.6334 18.8245
RightHand  -1.72099 0.909605 -31.1882
LeftUpLeg  -12.8117 11.2163 28.3485
LeftLeg  51.16 7.56873 10.4102
LeftFoot  4.97644 4.9415 -33.7549
LeftToes  6.91183e-011 3.39355e-011 2.1261e-011
600
root  -20.4037 34.9703 -5.02746 -102.648 -85.5758 90.0954
RightUpLeg  -12.8975 -10.4337 -22.6918
RightLeg  52.2507 -0.689169 -1.33981
RightFoot  -18.1296 1.02811 19.2576
RightToes  -1.16417e-010 0 -3.6325e-017
Spine  22.2867 -3.96647 4.22799
Spine1  1.14154 -4.06067 5.45018
HEad  -12.3075 16.7029 -16.4705
LeftShoulder1  1.33417 -3.48461 -11.97
LeftArm  11.4372 27.5444 -54.021
LeftForeArm  27.2399 -37.2066 -6.84469
LeftHand  0.679661 7.15683 41.4933
RightShoulder  0.434118 -1.30679 12.899
RightArm  -34.7434 -10.9091 48.1844
RightForeArm  -2.43027 64.388 24.9961
RightHand  -1.51496 0.193221 -30.9927
LeftUpLeg  -14.1221 13.7564 22.4581
LeftLeg  55.8935 4.47051 7.58289
LeftFoot  4.6828 4.48903 -31.3791
LeftToes  6.91183e-011 3.39355e-011 2.1261e-011
601
root  -20.4858 35.0328 -4.39858 -86.1253 -81.9083 72.3189
RightUpLeg  -10.8296 -9.17438 -28.0159
RightLeg  51.5041 -1.21224 -2.01244
RightFoot  -17.6263 0.998448 20.1876
RightToes  -1.16417e-010 0 -3.6325e-017
Spine  21.8947 -3.32719 8.34184
Spine1  2.14505 -1.8257 0.469644
HEad  -10.0072 10.9469 -17.5576
LeftShoulder1  1.53844 -3.86943 -13.9432
LeftArm  8.66682 29.4778 -55.6894
LeftForeArm  18.0121 -37.2077 -7.412
LeftHand  0.37335 6.39066 39.818
RightShoulder  0.453688 -1.24405 13.2421
RightArm  -37.9814 -7.83536 43.169
RightForeArm  8.08096 70.4274 34.2604
RightHand  -1.51117 -0.01399 -32.03
LeftUpLeg  -14.3911 16.2604 17.992
LeftLeg  58.0132 1.57098 3.28598
LeftFoot  5.60758 4.49069 -29.7523
LeftToes  6.91183e-011 3.39355e-011 2.1261e-011
602
root  -20.5853 35.1542 -3.80308 -79.4127 -79.229 64.6256
RightUpLeg  -8.24843 -8.41981 -31.7874
RightLeg  49.8939 -1.82739 -2.6848
RightFoot  -16.784 0.907639 21.2856
RightToes  -1.16417e-010 0 -3.6325e-017
Spine  21.5598 -2.94913 11.9098
Spine1  2.38758 -0.144212 -2.95256
HEad  -7.46601 6.03629 -17.617
LeftShoulder1  1.55317 -3.7943 -14.3867
LeftArm  5.60797 32.3694 -57.7011
LeftForeArm  9.41564 -37.0384 -7.89368
LeftHand  0.159957 5.8222 38.1219
RightShoulder  0.493479 -0.979015 12.6409
RightArm  -39.4547 -5.84262 39.2411
RightForeArm  26.2738 75.3337 48.7189
RightHand  -1.58284 0.0815454 -32.9294
LeftUpLeg  -14.0604 17.3325 15.8674
LeftLeg  58.2068 -0.544981 -0.387126
LeftFoot  6.7701 4.72072 -29.2872
LeftToes  6.91183e-011 3.39355e-011 2.1261e-011
603
root  -20.7195 35.3537 -3.25265 -72.9993 -77.1908 57.845
RightUpLeg  -5.71752 -7.56784 -34.1444
RightLeg  47.6342 -2.96453 -3.81205
RightFoot  -15.3776 0.698501 22.5461
RightToes  -1.16417e-010 0 -3.6325e-017
Spine  20.6802 -2.5759 15.0662
Spine1  2.3005 1.28462 -6.01023
HEad  -5.02077 1.57654 -17.1384
LeftShoulder1  1.49366 -3.60121 -14.1026
LeftArm  3.43952 35.205 -58.9883
LeftForeArm  -0.0605437 -36.9658 -8.44146
LeftHand  0.13406 5.7703 36.4525
RightShoulder  0.541223 -0.601918 11.6055
RightArm  -39.1328 -5.52108 36.5784
RightForeArm  53.8028 78.5229 71.5784
RightHand  -1.54385 -0.107715 -33.2486
LeftUpLeg  -13.4441 16.3675 15.2116
LeftLeg  56.5987 -1.51505 -1.96525
LeftFoot  6.96251 4.78368 -29.3634
LeftToes  6.91183e-011 3.39355e-011 2.1261e-011
604
root  -20.8819 35.6891 -2.67846 -66.7826 -75.0352 51.9094
RightUpLeg  -3.04394 -6.54859 -35.9213
RightLeg  44.348 -5.00005 -5.51204
RightFoot  -13.1912 0.3016 23.9644
RightToes  -1.16417e-010 0 -3.6325e-017
Spine  19.0298 -2.02972 17.5081
Spine1  2.33402 2.56204 -8.99692
HEad  -2.54846 -2.62753 -16.5535
LeftShoulder1  1.47106 -3.48953 -14.1164
LeftArm  2.7286 37.0798 -58.8627
LeftForeArm  -10.5636 -36.6972 -8.95366
LeftHand  0.240709 6.13664 34.9305
RightShoulder  0.568795 -0.347018 10.8836
RightArm  -36.8294 -6.71021 34.1857
RightForeArm  86.2126 79.1652 99.4033
RightHand  -1.39191 -0.644835 -33.3591
LeftUpLeg  -12.6255 13.1251 14.3487
LeftLeg  52.9996 -2.20972 -2.66891
LeftFoot  7.23825 4.74985 -28.7637
LeftToes  6.91183e-011 3.39355e-011 2.1261e-011
605
root  -21.0629 36.1761 -1.97267 -60.3363 -72.3334 46.0479
RightUpLeg  0.493575 -5.64256 -37.6834
RightLeg  39.6684 -8.19991 -7.48358
RightFoot  -9.88538 -0.400306 25.5696
RightToes  -1.16417e-010 0 -3.6325e-017
Spine  16.8916 -1.45804 19.3381
Spine1  2.44806 3.62851 -11.8287
HEad  0.218494 -6.8355 -16.0375
LeftShoulder1  1.45718 -3.30749 -14.5092
LeftArm  2.53716 37.8502 -57.8602
LeftForeArm  -20.5175 -36.1481 -9.29099
LeftHand  0.350163 6.55169 33.3414
RightShoulder  0.601066 -0.1751 10.9228
RightArm  -32.7849 -9.4987 31.0978
RightForeArm  112.998 77.7783 121.41
RightHand  -1.1711 -1.36536 -33.0909
LeftUpLeg  -11.3402 7.79373 12.3423
LeftLeg  47.6994 -4.19793 -4.46572
LeftFoot  8.66668 4.89294 -27.5585
LeftToes  6.91183e-011 3.39355e-011 2.1261e-011
606
root  -21.2542 36.7429 -1.11355 -54.5528 -69.4277 41.0298
RightUpLeg  4.43959 -4.4929 -39.1309
RightLeg  34.3319 -12.7611 -9.44296
RightFoot  -5.02553 -1.58144 27.4239
RightToes  -1.16417e-010 0 -3.6325e-017
Spine  14.6137 -0.772188 21.1992
Spine1  2.34399 4.81151 -15.1524
HEad  3.58551 -11.4507 -15.4459
LeftShoulder1  1.41495 -3.03342 -14.7814
LeftArm  1.67562 37.9306 -56.7052
LeftForeArm  -29.1895 -35.8053 -9.56742
LeftHand  0.422 6.88409 31.6109
RightShoulder  0.676314 0.101019 11.7
RightArm  -27.5524 -14.3363 27.3741
RightForeArm  130.611 75.9077 134.022
RightHand  -0.951636 -2.04381 -32.3847
LeftUpLeg  -9.25663 1.98477 9.55841
LeftLeg  41.5176 -7.95634 -7.08821
LeftFoot  9.37487 4.92694 -26.8262
LeftToes  6.91183e-011 3.39355e-011 2.1261e-011
607
root  -21.4339 37.2926 -0.181468 -50.4743 -67.2314 38.129
RightUpLeg  7.15364 -2.34984 -39.6698
RightLeg  29.934 -18.5191 -11.4003
RightFoot  1.33366 -3.2321 28.6459
RightToes  -1.16417e-010 0 -3.6325e-017
Spine  12.5576 0.414215 23.2328
Spine1  1.73646 6.49355 -19.4209
HEad  7.39613 -16.2946 -14.5619
LeftShoulder1  1.34336 -2.72452 -14.6967
LeftArm  -0.403621 37.9293 -55.6854
LeftForeArm  -36.5203 -36.2015 -9.96698
LeftHand  0.464489 7.15504 29.7557
RightShoulder  0.778228 0.458786 12.6787
RightArm  -21.4335 -20.865 24.1425
RightForeArm  139.521 75.0667 138.491
RightHand  -0.856578 -2.3209 -31.8117
LeftUpLeg  -6.45959 -1.58595 6.93911
LeftLeg  35.0414 -11.6079 -8.31151
LeftFoot  7.32496 4.38802 -26.5389
LeftToes  6.91183e-011 3.39355e-011 2.1261e-011
608
root  -21.5772 37.7459 0.744486 -47.6728 -66.0765 36.8468
RightUpLeg  8.02094 0.312129 -39.5121
RightLeg  27.3389 -24.2534 -13.1875
RightFoot  8.07218 -4.70753 27.439
RightToes  -1.16417e-010 0 -3.6325e-017
Spine  11.2154 1.92229 24.5151
Spine1  0.441494 8.19702 -23.6668
HEad  10.6104 -20.4746 -13.2482
LeftShoulder1  1.20018 -2.14248 -14.3457
LeftArm  -3.75305 38.257 -54.9415
LeftForeArm  -42.3594 -37.6178 -10.6118
LeftHand  0.486609 7.40882 27.5593
RightShoulder  0.859714 0.754114 13.2875
RightArm  -14.9263 -27.7546 22.5407
RightForeArm  139.502 76.0194 135.494
RightHand  -0.916338 -2.08633 -31.6171
LeftUpLeg  -3.54278 -1.42712 5.04925
LeftLeg  28.697 -13.2643 -7.44364
LeftFoot  3.50135 3.37464 -25.6578
LeftToes  6.91183e-011 3.39355e-011 2.1261e-011
609
root  -21.6559 38.0277 1.62327 -44.7176 -65.2247 35.1401
RightUpLeg  8.23325 1.60188 -39.4292
RightLeg  26.0198 -28.3534 -14.3427
RightFoot  13.6205 -5.12889 23.3306
RightToes  -1.16417e-010 0 -3.6325e-017
Spine  10.8606 2.85182 24.2208
Spine1  -1.32219 8.91634 -26.4957
HEad  11.9993 -23.5555 -11.4614
LeftShoulder1  0.962072 -1.1093 -13.901
LeftArm  -7.74514 38.482 -54.467
LeftForeArm  -46.8384 -39.9234 -11.5258
LeftHand  0.493343 7.63303 25.3441
RightShoulder  0.911626 0.941746 13.6307
RightArm  -9.3471 -33.985 22.6623
RightForeArm  128.272 78.2048 123.51
RightHand  -1.07492 -1.50623 -31.558
LeftUpLeg  -1.29985 1.07087 3.84351
LeftLeg  23.6835 -13.5935 -6.12182
LeftFoot  0.143147 2.40096 -23.5817
LeftToes  6.91183e-011 3.39355e-011 2.1261e-011
610
root  -21.6257 38.1171 2.40082 -40.9871 -64.0909 31.9109
RightUpLeg  8.83654 0.469632 -39.6655
RightLeg  25.2872 -30.6301 -14.8708
RightFoot  17.4823 -4.56807 18.1112
RightToes  -1.16417e-010 0 -3.6325e-017
Spine  11.4131 2.7797 22.7453
Spine1  -2.84555 8.53859 -27.6437
HEad  11.2224 -26.2213 -9.32278
LeftShoulder1  0.743751 -0.0893324 -13.7387
LeftArm  -11.1711 37.362 -53.8632
LeftForeArm  -50.1263 -42.3429 -12.5008
LeftHand  0.463579 7.61499 24.149
RightShoulder  0.948692 1.00267 14.2352
RightArm  -6.15213 -39.3896 24.0377
RightForeArm  100.573 79.919 97.7902
RightHand  -1.31092 -0.678352 -31.7194
LeftUpLeg  -0.245111 2.57955 2.99144
LeftLeg  21.1656 -13.3812 -5.33225
LeftFoot  -2.27293 1.68278 -20.8498
LeftToes  6.91183e-011 3.39355e-011 2.1261e-011
611
root  -21.4773 38.028 3.01838 -37.6598 -63.4183 28.4852
RightUpLeg  9.06877 -1.84306 -39.9619
RightLeg  25.5755 -31.5549 -15.4257
RightFoot  20.1352 -3.88521 14.212
RightToes  -1.16417e-010 0 -3.6325e-017
Spine  12.7097 2.39483 20.9241
Spine1  -3.53064 8.03734 -27.784
HEad  8.7143 -29.0592 -6.91243
LeftShoulder1  0.690094 0.241049 -14.2061
LeftArm  -13.6556 34.2889 -52.8882
LeftForeArm  -52.001 -44.2618 -13.3117
LeftHand  0.430563 7.41705 24.6218
RightShoulder  0.962918 0.903922 15.1154
RightArm  -5.97657 -43.7466 26.7839
RightForeArm  60.6198 78.4737 62.1777
RightHand  -1.61961 0.301826 -32.4099
LeftUpLeg  -0.379783 1.2132 2.36315
LeftLeg  21.3673 -11.6446 -4.64556
LeftFoot  -5.02637 1.07302 -18.7745
LeftToes  6.91183e-011 3.39355e-011 2.1261e-011
612
root  -21.2659 37.8067 3.46372 -36.1879 -64.5733 26.5881
RightUpLeg  7.72075 -3.25162 -39.8623
RightLeg  27.167 -30.8693 -16.1162
RightFoot  21.7783 -3.72588 12.9916
RightToes  -1.16417e-010 0 -3.6325e-017
Spine  14.6237 2.41906 18.9168
Spine1  -3.39146 8.07937 -27.2221
HEad  4.79014 -31.0952 -4.02038
LeftShoulder1  0.779561 -0.0852806 -14.8444
LeftArm  -16.1906 30.4506 -52.2767
LeftForeArm  -51.9061 -46.4439 -14.2646
LeftHand  0.489721 7.49171 26.6925
RightShoulder  0.959933 0.756695 15.8689
RightArm  -8.1206 -46.1675 30.9988
RightForeArm  31.3634 73.3563 38.0678
RightHand  -1.96659 1.23858 -33.7201
LeftUpLeg  -1.06925 -1.04459 2.33612
LeftLeg  23.6795 -8.53462 -3.73326
LeftFoot  -8.50144 0.49114 -17.687
LeftToes  6.91183e-011 3.39355e-011 2.1261e-011
